<svg width="969" height="201" viewBox="0 0 969 201" fill="none" xmlns="http://www.w3.org/2000/svg">
<g clip-path="url(#clip0_2187_2245)">
<path d="M512.951 104.336C508.99 108.902 503.982 113.468 499.709 106.49C494.535 98.0433 498.719 98.6154 503.293 95.1154C507.866 91.6155 513.897 82.7759 514.331 77.01C514.865 69.853 502.747 70.5485 497.873 71.9956C473.694 79.2086 444.773 130.575 435.793 153.336C433.279 159.719 425.067 183.377 436.984 184.667C441.991 185.205 458.093 167.84 462.455 163.6C474.617 151.799 482.328 143.722 491.453 128.903C493.934 124.876 494.268 118.415 499.988 123.552C509.758 132.336 496.282 138.977 493.756 145.876C492.543 149.208 493.812 151.732 492.755 154.884C492.243 156.421 482.228 168.883 482.94 169.478L502.358 156.207C509.88 151.743 522.665 145.909 531.334 145.438C535.718 145.203 539.09 148.063 539.713 152.416C540.937 160.975 527.205 173.887 525.336 183.792L526.426 185.43L537.287 183.265C538.689 175.311 540.603 178.172 545.488 177.431C547.279 177.162 553.956 174.234 555.369 173.146C557.895 171.194 557.661 168.053 559.019 165.731C561.945 160.706 571.96 147.02 577.835 146.459C586.648 145.618 585.591 163.039 581.352 167.919L572.828 177.072C582.954 176.074 592.468 171.924 601.303 167.122C605.198 165.002 616.058 158.597 618.662 155.691C621.266 152.786 624.114 146.403 627.019 142.668C630.168 138.607 639.292 127.849 642.931 124.966C645.779 122.7 648.383 121.028 651.087 124.125C656.44 130.249 652.879 134.905 648.873 140.301C642.096 149.432 630.19 154.828 627.364 166.528C630.935 165.193 633.328 169.321 635.731 169.59C641.039 170.185 663.45 160.033 668.457 156.499C672.029 153.975 676.547 145.629 680.709 153.19C686.027 162.86 673.932 164.744 674.399 172.238C674.989 181.818 689.165 182.266 695.018 177.409L686.706 174.829C679.574 166.595 681.499 157.913 690.912 153.022C699.67 148.467 705.211 153.751 707.203 162.501C713.479 160.986 719.643 158.473 725.508 155.647C730.849 153.066 755.329 137.216 757.989 137.362C766.212 137.799 760.259 154.929 757.788 159.057L796.089 161.267C806.46 151.563 820.792 136.139 835.057 148.299C842.346 154.514 840.499 167.829 830.929 158.844C832.999 163.376 827.68 167.964 827.424 170.858C826.99 175.816 834.801 173.73 837.472 172.664C841.845 170.914 850.669 162.456 853.718 158.574C857.59 153.639 858.214 146.807 865.068 145.786C871.155 144.877 889.248 144.889 891.462 152.102C895.346 164.733 880.747 168.323 878.388 179.002C891.83 176.669 907.964 170.14 918.958 161.895C922.385 159.326 929.763 148.692 933.379 155.613C938.665 165.743 923.476 170.544 922.296 179.383C924.767 181.56 958.127 158.372 963.045 155.781C968.275 155.31 969.466 160.953 968.876 165.283C968.153 170.645 958.327 177.375 954.633 181.201C951.929 183.994 945.23 194.673 941.591 193.966C938.387 193.349 940.712 184.274 941.358 181.896C937.196 183.814 934.036 187.079 929.986 189.277C927.971 190.377 922.152 193.361 920.171 193.204C913.762 192.688 911.291 183.612 911.903 178.172C904.582 182.289 897.171 186.462 889.226 189.289C880.268 192.474 870.253 196.771 868.295 183.399C867.538 178.228 868.239 172.843 870.61 168.188C871.199 167.021 878.287 158.911 877.342 158.227C871.711 158.586 867.327 156.712 862.008 159.528C854.397 163.555 850.057 177.577 842.39 182.939C840.053 184.577 832.776 187.258 830.061 187.449C824.965 187.785 818.689 179.989 817.932 175.109C812.368 180.146 802.165 195.256 794.909 184.712C791.994 180.471 792.84 175.109 791.104 170.768L755.796 171.307C753.638 179.843 761.438 186.967 762.128 194.011C762.618 198.925 757.733 203.502 753.705 199.418C748.23 193.854 745.949 178.531 745.081 170.936C744.168 169.781 732.785 169.4 730.482 168.94C728.69 168.581 727.466 166.842 725.853 166.763C724.84 166.707 708.572 173.46 707.782 174.201C705.99 175.906 705.478 183.725 699.881 188.47C684.559 201.471 666.933 189.95 663.305 172.484L638.669 182.221C633.773 188.492 628.042 202.054 618.718 193.024C613.911 188.369 613.076 178.721 613.421 172.417C603.851 179.237 584.2 190.601 572.383 189.917C567.364 189.625 561.823 184.622 560.721 184.656C559.33 184.689 549.75 191.229 546.701 192.531C541.104 194.92 529.108 199.396 523.544 197.724C519.394 196.479 514.019 188.301 513.763 183.983C513.285 175.749 519.661 167.941 522.053 160.56C503.281 167.549 488.46 181.38 474.116 194.909C464.257 196.378 463 184.51 466.093 177.263C454.565 185.06 446.431 205.038 430.33 192.923C410.479 177.992 424.51 150.554 432.934 133.379C442.859 113.131 471.101 66.8579 493.556 61.4509C510.403 57.3901 523.344 63.8852 522.387 82.7871C522.053 89.3383 517.213 99.3782 512.94 104.314L512.951 104.336ZM747.206 154.401L741.375 158.148L746.539 158.765L747.206 154.401ZM821.382 157.598C812.936 160.65 805.28 166.674 801.597 175.064C803.133 176.298 820.247 160.493 821.382 157.598Z" fill="white"/>
<path d="M123.892 125.089C127.508 125.235 134.986 126.2 138.38 127.367C144.311 129.397 149.318 134.815 149.029 141.479C156.362 137.922 170.482 132.616 175.868 141.591C180.842 149.869 176.28 155.321 175.668 163.88C182.567 164.621 189.121 161.065 195.753 160.515C197.188 160.392 198.902 161.48 199.959 161.3C200.571 161.199 201.127 158.956 202.051 158.07C208.65 151.765 224.706 152.416 231.795 158.193C232.907 158.148 240.897 142.623 242.021 140.267C243.556 137.048 245.37 129.734 246.505 127.972C249.187 123.811 255.407 130.081 256.075 133.749C257.61 142.174 241.097 162.164 241.91 166.057C262.807 174.863 251.524 185.71 235.812 173.887C224.862 189.401 203.13 191.151 198.245 169.972C189.243 174.01 178.005 181.885 169.147 173.247C161.97 166.259 163.906 158.518 166.554 149.948C153.213 149.623 140.572 161.592 131.18 170.353C127.664 173.629 120.453 183.826 115.925 183.545C115.324 183.512 107.946 175.457 110.25 173.382L138.591 138.865C138.257 135.567 105.398 136.094 101.203 136.341C98.933 147.738 96.7298 160.179 92.6683 171.127C89.2521 180.337 82.1528 194.382 70.7472 186.54C76.3888 183.175 79.4155 177.073 81.9192 171.105C83.6773 166.898 92.1675 138.551 90.3426 136.823C83.7774 136.576 73.4067 135.634 68.0766 139.785C55.3691 157.195 42.7061 177.813 25.2471 190.814C19.5165 195.077 13.2517 199.968 6.28594 196.232C-4.76362 190.309 1.76819 171.015 3.49295 161.289C13.797 103.08 57.3386 49.1563 102.383 14.7626L133.105 0C138.569 1.68267 140.372 7.41495 139.504 12.7097C137.946 22.2224 126.663 40.6644 122.523 51.1418C113.043 75.1254 107.479 100.567 102.839 125.897L123.881 125.101L123.892 125.089ZM127.074 14.8635C104.163 22.6936 83.7774 38.8023 68.0099 56.9751C60.6657 65.4333 53.4997 75.1142 46.456 83.2359C45.4323 84.4137 44.7424 88.6877 44.5087 88.8896C37.287 95.2501 39.0896 95.093 34.9502 102.945C20.9185 129.599 5.9076 155.871 8.84525 187.561C10.6145 189.423 31.0445 170.14 33.0474 167.997C34.2826 166.674 42.3055 157.475 42.5503 156.78C42.873 155.882 41.8826 151.115 42.6727 147.738C45.7216 134.613 51.8639 135.298 60.599 129.408C64.6939 126.649 74.6084 107.59 77.713 101.958C88.3063 82.7759 96.9635 62.2923 108.013 43.3903C113.822 33.4514 120.932 24.5333 127.085 14.8523L127.074 14.8635ZM76.1997 126.043L92.0896 125.437L104.308 72.9492L76.1997 126.043ZM224.807 167.212C222.859 164.778 199.035 167.414 208.505 175.524C214.77 175.491 220.823 171.867 224.807 167.212Z" fill="white"/>
<path d="M289.379 169.063C302.131 164.677 316.452 158.485 327.657 150.969C331.285 148.534 335.38 141.961 339.274 145.001C347.854 151.675 339.541 157.711 336.437 163.353C334.345 167.145 332.32 172.933 332.776 177.263C333.165 181.021 338.351 189.984 332.676 192.43C329.271 193.899 327.312 190.444 325.71 187.684C321.904 181.133 320.291 173.617 321.938 166.101C310.654 170.622 288.11 188.088 275.959 185.015C273.266 184.33 269.55 177.869 269.116 175.255C267.803 167.369 283.848 158.148 288.311 151.799C290.247 149.05 291.882 146.953 287.287 146.583C277.895 145.82 271.642 150.957 265.277 157.004C263.029 159.135 261.95 164.587 257.743 160.694C249.876 153.414 260.447 144.193 266.512 139.785C293.808 119.94 313.87 149.443 289.379 169.085V169.063Z" fill="white"/>
<path d="M364.023 148.142C369.275 146.437 372.746 153.908 372.379 158.462C372.168 161.132 367.583 170.23 366.315 173.741C364.701 178.161 363.956 189.715 357.68 189.042C354.709 188.728 351.404 181.032 351.771 178.609C352.072 176.691 354.152 175.143 354.931 173.124C357.446 166.539 359.16 156.365 361.975 150.464C362.442 149.477 362.888 148.501 364.023 148.142Z" fill="white"/>
<path d="M375.183 112.245C382.994 107.298 391.896 114.859 390.884 123.104C390.25 128.253 386.077 126.077 383.54 125.886C382.594 125.818 381.492 126.536 380.435 126.391C375.495 125.74 372.134 116.429 375.183 112.234V112.245Z" fill="white"/>
<path d="M356.021 100.062C359.949 101.375 364.467 106.558 363.376 110.787C359.604 125.37 344.237 104.022 356.021 100.062Z" fill="white"/>
</g>
<defs>
<clipPath id="clip0_2187_2245">
<rect width="969" height="201" fill="white"/>
</clipPath>
</defs>
</svg>
