<svg width="237" height="49" viewBox="0 0 237 49" fill="none" xmlns="http://www.w3.org/2000/svg">
<g clip-path="url(#clip0_4020_4541)">
<path d="M125.459 25.4352C124.49 26.5482 123.265 27.6613 122.22 25.9603C120.955 23.9011 121.978 24.0405 123.097 23.1873C124.215 22.3341 125.69 20.1792 125.796 18.7736C125.927 17.0288 122.963 17.1984 121.771 17.5512C115.857 19.3095 108.784 31.8317 106.588 37.3803C105.972 38.9363 103.964 44.7038 106.879 45.0183C108.103 45.1495 112.042 40.9163 113.108 39.8825C116.083 37.0057 117.969 35.0367 120.201 31.4242C120.808 30.4424 120.889 28.8673 122.288 30.1197C124.678 32.261 121.382 33.8799 120.764 35.5618C120.468 36.374 120.778 36.9893 120.519 37.7577C120.394 38.1324 117.945 41.1706 118.119 41.3155L122.868 38.0804C124.708 36.992 127.835 35.57 129.955 35.4551C131.027 35.3977 131.852 36.095 132.004 37.1561C132.304 39.2426 128.945 42.3902 128.488 44.805L128.755 45.2042L131.411 44.6764C131.754 42.7376 132.222 43.4349 133.417 43.2544C133.855 43.1888 135.488 42.475 135.834 42.2098C136.451 41.7339 136.394 40.9682 136.726 40.4021C137.442 39.177 139.891 35.8407 141.328 35.704C143.484 35.4989 143.225 39.7458 142.188 40.9354L140.104 43.1669C142.58 42.9235 144.907 41.9117 147.068 40.7412C148.021 40.2244 150.677 38.6629 151.314 37.9546C151.951 37.2463 152.647 35.6903 153.358 34.7796C154.128 33.7897 156.36 31.1671 157.25 30.4643C157.946 29.9119 158.583 29.5044 159.245 30.2592C160.554 31.7523 159.683 32.8872 158.703 34.2026C157.046 36.4286 154.133 37.744 153.442 40.5963C154.316 40.2709 154.901 41.2772 155.489 41.3429C156.787 41.4878 162.268 39.0129 163.493 38.1515C164.367 37.5362 165.472 35.5016 166.489 37.3448C167.79 39.7021 164.832 40.1615 164.946 41.9883C165.09 44.3237 168.558 44.4331 169.989 43.2489L167.956 42.62C166.212 40.6127 166.683 38.4961 168.985 37.3037C171.127 36.1935 172.482 37.4815 172.969 39.6145C174.504 39.2454 176.012 38.6328 177.446 37.9437C178.753 37.3147 184.74 33.4506 185.391 33.4861C187.402 33.5928 185.946 37.7686 185.342 38.775L194.709 39.3137C197.246 36.9482 200.751 33.1881 204.24 36.1524C206.023 37.6675 205.571 40.9135 203.231 38.723C203.737 39.8279 202.436 40.9463 202.373 41.6519C202.267 42.8606 204.178 42.352 204.831 42.0922C205.9 41.6656 208.059 39.6036 208.804 38.6574C209.752 37.4542 209.904 35.7887 211.58 35.5399C213.069 35.3184 217.494 35.3211 218.036 37.0795C218.986 40.1588 215.415 41.0339 214.838 43.6373C218.126 43.0685 222.072 41.4769 224.761 39.4669C225.599 38.8406 227.404 36.2482 228.288 37.9355C229.581 40.4049 225.866 41.5753 225.577 43.7302C226.182 44.2608 234.341 38.6082 235.544 37.9765C236.823 37.8616 237.114 39.2372 236.97 40.2927C236.793 41.5999 234.39 43.2407 233.486 44.1733C232.825 44.8542 231.187 47.4576 230.297 47.2853C229.513 47.1349 230.082 44.9226 230.24 44.3428C229.222 44.8104 228.449 45.6062 227.458 46.1422C226.965 46.4102 225.542 47.1377 225.058 47.0994C223.49 46.9736 222.886 44.7612 223.036 43.4349C221.245 44.4385 219.432 45.4558 217.489 46.145C215.298 46.9216 212.849 47.969 212.37 44.7093C212.185 43.4486 212.356 42.1359 212.936 41.001C213.08 40.7166 214.814 38.7395 214.582 38.5726C213.205 38.6601 212.133 38.2035 210.832 38.8899C208.97 39.8716 207.909 43.29 206.034 44.5971C205.462 44.9964 203.682 45.65 203.018 45.6965C201.772 45.7785 200.237 43.8779 200.052 42.6883C198.691 43.9162 196.195 47.5998 194.421 45.0292C193.708 43.9955 193.915 42.6883 193.49 41.63L184.855 41.7613C184.327 43.8424 186.234 45.5789 186.403 47.2963C186.523 48.4941 185.328 49.6098 184.343 48.6144C183.004 47.258 182.446 43.5224 182.234 41.671C182.011 41.3894 179.226 41.2964 178.663 41.1843C178.225 41.0967 177.925 40.6729 177.531 40.6537C177.283 40.6401 173.304 42.2863 173.111 42.4668C172.673 42.8825 172.548 44.7886 171.179 45.9453C167.431 49.1148 163.12 46.3063 162.233 42.0484L156.207 44.4221C155.01 45.9508 153.608 49.257 151.328 47.0556C150.152 45.9207 149.948 43.5689 150.032 42.032C147.691 43.6947 142.885 46.4649 139.995 46.2981C138.767 46.227 137.412 45.0073 137.143 45.0155C136.802 45.0237 134.459 46.6181 133.713 46.9353C132.345 47.5178 129.411 48.6089 128.05 48.2014C127.035 47.8979 125.72 45.9043 125.658 44.8515C125.541 42.8442 127.1 40.9409 127.685 39.1415C123.094 40.8452 119.469 44.217 115.961 47.515C113.549 47.8733 113.242 44.98 113.998 43.2134C111.179 45.114 109.189 49.9845 105.251 47.031C100.396 43.3911 103.828 36.7021 105.888 32.5153C108.316 27.5792 115.223 16.2987 120.715 14.9806C124.836 13.9906 128.001 15.574 127.767 20.1819C127.685 21.779 126.501 24.2265 125.456 25.4298L125.459 25.4352ZM182.754 37.6401L181.327 38.5535L182.59 38.7039L182.754 37.6401ZM200.896 38.4195C198.83 39.1633 196.957 40.6319 196.057 42.6774C196.432 42.9782 200.618 39.125 200.896 38.4195Z" fill="#111827"/>
<path d="M30.3022 30.4944C31.1867 30.53 33.0156 30.7652 33.8457 31.0496C35.2963 31.5445 36.521 32.8654 36.4503 34.4898C38.2438 33.6229 41.6975 32.3294 43.0147 34.5171C44.2312 36.5353 43.1154 37.8644 42.9657 39.9509C44.6531 40.1314 46.2561 39.2645 47.8782 39.1305C48.2292 39.1005 48.6484 39.3657 48.9069 39.322C49.0566 39.2974 49.1927 38.7504 49.4186 38.5344C51.0325 36.9975 54.9597 37.1561 56.6933 38.5645C56.9655 38.5535 58.9196 34.7687 59.1945 34.1944C59.57 33.4096 60.0136 31.6266 60.2912 31.1972C60.9471 30.1827 62.4685 31.7114 62.6318 32.6056C63.0074 34.6593 58.9686 39.5325 59.1672 40.4815C64.2783 42.6282 61.5187 45.2726 57.6758 42.3903C54.9978 46.1723 49.6826 46.5989 48.4878 41.4359C46.286 42.4204 43.5372 44.3401 41.3709 42.2344C39.6155 40.5307 40.089 38.6438 40.7367 36.5545C37.4736 36.4752 34.3819 39.3931 32.0849 41.5289C31.2248 42.3274 29.4613 44.8132 28.3536 44.7448C28.2066 44.7366 26.4022 42.7731 26.9656 42.2672L33.8974 33.8526C33.8158 33.0486 25.779 33.1771 24.7529 33.2373C24.1977 36.0157 23.6589 39.0485 22.6655 41.7175C21.83 43.9627 20.0936 47.3865 17.304 45.475C18.6838 44.6546 19.4241 43.1669 20.0365 41.7121C20.4665 40.6866 22.543 33.776 22.0967 33.3549C20.491 33.2947 17.9545 33.065 16.6508 34.0769C13.5428 38.3211 10.4456 43.3474 6.1755 46.5169C4.77389 47.5561 3.24164 48.7484 1.53794 47.8378C-1.16459 46.3938 0.432978 41.6902 0.854822 39.3192C3.375 25.129 14.0245 11.9834 25.0414 3.59884L32.5557 0C33.892 0.410202 34.3329 1.80762 34.1206 3.09839C33.7396 5.4174 30.9799 9.91322 29.9675 12.4674C27.6487 18.3142 26.2879 24.5164 25.153 30.6913L30.2995 30.4972L30.3022 30.4944ZM31.0806 3.62345C25.4769 5.53226 20.491 9.45926 16.6345 13.8894C14.8383 15.9514 13.0856 18.3114 11.3628 20.2913C11.1124 20.5785 10.9437 21.6204 10.8865 21.6696C9.12024 23.2202 9.56113 23.1819 8.54871 25.0962C5.1168 31.5938 1.4454 37.9984 2.1639 45.7239C2.59663 46.1778 7.59344 41.4769 8.08332 40.9546C8.38541 40.6319 10.3477 38.3894 10.4075 38.2199C10.4865 38.0011 10.2442 36.8389 10.4375 36.0157C11.1832 32.8162 12.6855 32.983 14.8219 31.5473C15.8235 30.8745 18.2484 26.2283 19.0077 24.8555C21.5986 20.1792 23.716 15.1857 26.4186 10.5777C27.8392 8.15482 29.5783 5.98075 31.0833 3.62072L31.0806 3.62345ZM18.6376 30.7269L22.524 30.5792L25.5123 17.7836L18.6376 30.7269ZM54.9842 40.7631C54.5079 40.1697 48.681 40.8124 50.9971 42.7895C52.5293 42.7813 54.0099 41.898 54.9842 40.7631Z" fill="#111827"/>
<path d="M70.7773 41.2143C73.8962 40.1451 77.3988 38.6355 80.1395 36.8033C81.0267 36.2099 82.0282 34.6074 82.9808 35.3485C85.0791 36.9756 83.0461 38.4468 82.2868 39.8224C81.7751 40.7467 81.2798 42.1578 81.3914 43.2134C81.4867 44.1295 82.7549 46.3145 81.3669 46.9107C80.5341 47.2689 80.0551 46.4266 79.6632 45.7539C78.7324 44.1569 78.3378 42.3246 78.7406 40.4924C75.9809 41.5945 70.467 45.8524 67.495 45.1031C66.8364 44.9362 65.9274 43.3611 65.8213 42.7239C65.5001 40.8014 69.4246 38.5535 70.516 37.0057C70.9895 36.3357 71.3896 35.8243 70.2656 35.734C67.9686 35.5481 66.4391 36.8006 64.8823 38.2746C64.3326 38.7942 64.0686 40.1232 63.0398 39.1743C61.1157 37.3995 63.7012 35.1516 65.1844 34.0768C71.8604 29.2392 76.7674 36.4314 70.7773 41.2198V41.2143Z" fill="#111827"/>
<path d="M89.0336 36.1142C90.3182 35.6985 91.1673 37.5198 91.0775 38.6301C91.0258 39.281 89.9045 41.4988 89.5942 42.3547C89.1996 43.4322 89.0173 46.2489 87.4823 46.0848C86.7556 46.0083 85.9473 44.1323 86.0371 43.5416C86.1106 43.074 86.6196 42.6966 86.8101 42.2043C87.4251 40.5991 87.8443 38.1187 88.5328 36.6803C88.6471 36.4396 88.756 36.2017 89.0336 36.1142Z" fill="#111827"/>
<path d="M91.7636 27.3632C93.6741 26.1572 95.8514 28.0004 95.6037 30.0104C95.4486 31.2656 94.428 30.7351 93.8075 30.6886C93.5761 30.6722 93.3067 30.8472 93.0482 30.8117C91.8398 30.653 91.0179 28.3833 91.7636 27.3605V27.3632Z" fill="#111827"/>
<path d="M87.0766 24.3933C88.0373 24.7133 89.1423 25.9767 88.8756 27.0077C87.9529 30.5628 84.1945 25.3587 87.0766 24.3933Z" fill="#111827"/>
</g>
<defs>
<clipPath id="clip0_4020_4541">
<rect width="237" height="49" fill="white"/>
</clipPath>
</defs>
</svg>
