<svg width="51" height="50" viewBox="0 0 51 50" fill="none" xmlns="http://www.w3.org/2000/svg">
<path d="M11.3815 34.0353C4.57572 29.3469 3.06333 29.4982 2.91209 28.8932C2.15589 26.3221 -0.415177 26.9271 1.09722 25.4147C2.15589 24.356 2.00465 24.0535 0.794739 24.2048C0.189781 24.2048 -0.112698 24.0535 0.0385405 23.5998C0.34102 22.2387 0.643499 21.4825 0.945978 21.3312C1.55094 20.8775 12.5914 18.004 28.9253 11.9544C29.6815 11.5007 33.0087 9.98828 35.2773 9.98828C36.4872 9.98828 37.5459 10.442 38.6046 11.5007C38.1509 11.6519 37.0922 12.4081 35.5798 13.4668C34.2186 14.6767 33.0087 15.4329 31.95 15.8866L20.4559 21.0288C17.8848 22.0874 15.3137 22.9949 13.0451 23.7511C10.4741 24.5073 8.35671 25.4147 8.35671 26.1709C8.35671 26.6246 8.96166 27.2296 10.0203 27.9858C11.684 28.8932 14.255 30.7081 17.8848 33.4304C21.5145 36.0015 23.0269 37.6651 22.422 38.1188C21.9682 38.27 21.0608 38.4213 21.0608 38.5725C21.0608 39.0262 22.5732 38.7238 22.5732 39.3287C22.7244 40.3874 21.3633 40.2361 18.641 38.7238C16.0699 37.2114 13.6501 35.699 11.3815 34.0353ZM34.8236 34.9428C33.7649 34.1866 31.7988 33.1279 30.5889 32.5229C27.1104 30.8593 24.8418 29.3469 23.7831 27.9858C23.0269 27.2296 22.7244 26.1709 22.7244 25.1122C22.7244 23.4486 23.4806 22.3899 24.993 21.7849C29.0765 20.1213 34.3699 17.8527 40.8732 14.9792C44.0492 13.3156 46.6203 12.2569 47.8302 12.2569C49.4938 12.2569 49.7963 13.4668 50.25 17.2478C50.0988 17.399 49.3426 17.5502 48.2839 18.004C47.3765 18.3064 46.3178 18.9114 44.9566 19.6676C43.7467 20.4238 40.8732 21.9362 36.336 23.9023C32.7062 25.1122 31.0426 26.0196 31.1938 26.7758C31.3451 27.2296 31.7988 27.532 32.4038 27.8345L33.7649 29.0444C35.5798 31.313 39.9657 35.3965 39.9657 37.8163C37.9996 37.6651 35.4285 35.3965 34.8236 34.9428ZM24.5393 15.2817C24.993 14.8279 22.5732 14.9792 23.6319 15.4329C23.9344 15.5841 24.2368 15.5841 24.5393 15.2817ZM42.2343 17.5503C42.2343 16.9453 41.4781 17.2478 41.0244 17.8527C40.8732 18.4577 42.2343 18.004 42.2343 17.5503ZM15.1625 19.5164C15.6162 18.9114 14.4063 19.2139 11.2303 20.2726C8.50795 21.3312 6.84431 21.785 6.39059 21.9362C5.6344 22.0874 5.02944 22.5411 5.18068 22.5411C5.6344 22.5411 7.29803 22.0874 10.1716 21.3312C13.1964 20.4238 14.86 19.8188 15.1625 19.5164ZM27.8666 24.0535C28.6228 24.0535 30.7401 23.2973 31.7988 22.6924L34.0674 21.7849C36.0335 21.0288 36.4872 20.2726 35.4286 20.4238C33.7649 20.8775 32.4038 21.3312 31.6476 21.7849C31.0426 22.3899 27.4129 23.2973 27.5641 23.9023C27.5641 24.0535 27.7153 24.0535 27.8666 24.0535Z" fill="#FCD34D"/>
</svg>
