<svg width="32" height="32" viewBox="0 0 32 32" fill="none" xmlns="http://www.w3.org/2000/svg">
<rect width="32" height="32" rx="16" fill="white"/>
<path fill-rule="evenodd" clip-rule="evenodd" d="M21.9933 5.80564L21.9939 5.80504L21.9933 5.80564V5.80564ZM21.8802 5.97546C21.5843 6.41486 21.2736 6.84274 20.9628 7.27044L20.963 7.2697C21.2737 6.8422 21.5844 6.41463 21.8802 5.97546ZM20.367 8.09856C20.5629 7.82049 20.7628 7.54544 20.9628 7.27044L20.954 7.28256C20.7569 7.5537 20.56 7.82465 20.367 8.09856ZM20.367 8.09856C20.2575 8.25397 20.1493 8.41032 20.0431 8.56812C19.9895 8.64776 19.9364 8.72776 19.8839 8.80822C20.0405 8.5682 20.2023 8.3323 20.367 8.09856Z" fill="#111827"/>
<path fill-rule="evenodd" clip-rule="evenodd" d="M23.4174 19.4727C22.9899 19.3309 22.048 19.2137 21.5924 19.196L21.591 19.1974L18.9405 19.2941C19.525 16.2171 20.2258 13.1263 21.42 10.2128C21.6151 9.73654 21.9362 9.12484 22.2719 8.48519C22.8335 7.41531 23.4362 6.26722 23.559 5.544C23.6683 4.90078 23.4412 4.20441 22.753 4L18.883 5.79338C13.2091 9.97157 7.72443 16.5223 6.42649 23.5936C6.39268 23.7775 6.3442 23.9895 6.29169 24.2192C6.00678 25.4654 5.60308 27.231 6.77831 27.8386C7.6342 28.2812 8.40606 27.7268 9.11342 27.2186C9.11466 27.2178 9.11589 27.2169 9.11712 27.216C9.13369 27.2041 9.15023 27.1922 9.16673 27.1804C10.9592 25.8931 12.3503 23.9911 13.6703 22.1864C13.9698 21.7769 14.2657 21.3724 14.5617 20.9812C15.1679 20.526 16.2918 20.5751 17.113 20.611C17.2013 20.6148 17.2862 20.6185 17.3664 20.6215C17.5963 20.8313 16.5268 24.275 16.3054 24.786C15.99 25.511 15.6088 26.2523 14.8981 26.6612C16.3348 27.6137 17.2291 25.9076 17.6594 24.7887C18.1136 23.6079 18.3833 22.2841 18.6382 21.033C18.6704 20.875 18.7024 20.7181 18.7345 20.5629C19.2629 20.5329 22.959 20.5629 23.4174 20.725L23.8314 20.6215C23.8417 20.5892 23.8518 20.5578 23.8616 20.5273C24.0413 19.9691 24.1258 19.7065 23.4174 19.4727ZM21.9933 5.80564C19.1073 6.75684 16.5395 8.71375 14.5533 10.9214C14.0844 11.4423 13.6212 12.0013 13.1628 12.5545C12.717 13.0926 12.2758 13.6251 11.8383 14.1116C11.7524 14.2069 11.6851 14.4693 11.6411 14.641C11.6191 14.727 11.6028 14.7902 11.593 14.7984C10.9396 15.3534 10.8727 15.4999 10.6936 15.8919C10.6234 16.0457 10.5359 16.2372 10.389 16.506C10.3059 16.6581 10.2226 16.8101 10.1393 16.9621C10.1274 16.9837 10.1155 17.0055 10.1036 17.0272C8.42497 20.0885 6.75052 23.1421 7.10069 26.7852C7.32355 27.0114 9.897 24.6688 10.1493 24.4085C10.3049 24.2477 11.3155 23.1303 11.3463 23.0458C11.3608 23.007 11.3543 22.9087 11.3444 22.7797C11.3438 22.7711 11.3431 22.7623 11.3424 22.7535C11.3246 22.5215 11.3 22.2019 11.3617 21.9474C11.6487 20.7559 12.1534 20.5012 12.8493 20.15C13.0846 20.0313 13.3418 19.9015 13.6198 19.7207C14.012 19.4658 14.828 18.0661 15.3685 17.1092C15.4457 16.9725 15.5173 16.8448 15.5812 16.7308C15.6583 16.5933 15.7243 16.4757 15.7756 16.386C16.3738 15.3413 16.9229 14.2649 17.4722 13.1882C18.1482 11.8632 18.8244 10.5379 19.5923 9.27112C19.6449 9.18432 19.6983 9.09816 19.7525 9.01257C20.1317 8.41361 20.5472 7.8421 20.9628 7.27044C21.3136 6.78788 21.6641 6.305 21.9933 5.80564C21.9937 5.80512 21.9944 5.80481 21.9947 5.80428L21.9933 5.80564ZM15.5849 19.3119L17.5865 19.2383L19.1255 12.862L15.5849 19.3119Z" fill="#111827"/>
</svg>
