<svg width="50" height="50" viewBox="0 0 50 50" fill="none" xmlns="http://www.w3.org/2000/svg">
<path d="M10.605 41.3173C11.3356 40.7328 11.3356 40.4405 10.605 40.2944C10.3127 40.1483 10.1666 40.0022 10.1666 39.856C10.1666 39.7099 10.4589 39.1254 10.8972 38.3947C11.4818 37.518 13.3814 36.0567 16.5963 34.157L23.172 30.3577C27.2636 28.0196 30.9169 26.2661 34.2778 25.097L37.0543 24.0741L33.5472 21.1516L24.7795 13.5529L22.8798 11.9455L20.834 10.1919C20.5417 10.0458 20.3956 9.89967 20.2495 9.60742L20.1033 9.16903C20.1033 8.58451 20.6879 8 21.2724 8C21.5646 8 21.8569 8.14613 22.2953 8.29226C26.3869 10.3381 30.1862 12.6761 33.6933 15.3064L37.0543 17.6445C39.2462 18.9596 40.9997 20.2748 42.3149 21.4438C43.0455 22.1745 43.63 22.759 43.7762 23.1974C43.7762 23.3435 44.0684 23.6358 44.5068 23.7819C44.9452 23.928 45.0913 24.5125 44.9452 25.5354C44.7991 26.2661 44.5068 26.9967 44.3607 27.4351C44.2146 27.5812 42.3149 28.3119 38.8078 29.627C32.232 31.819 27.1175 34.157 20.6879 38.687C16.0117 41.6096 14.4043 42.4863 12.6508 42.4863C11.9201 42.4863 11.4818 42.4863 11.1895 42.3402C10.0205 42.1941 10.0205 41.9018 10.605 41.3173ZM6.65952 31.6728C5.63662 30.7961 5.78275 29.9193 7.24403 29.0425L9.58209 27.5812L13.5276 25.6816C14.2582 25.5354 17.0346 24.3664 18.7882 23.0512C19.2266 22.6129 19.5188 22.3206 19.5188 22.1745C19.9572 21.0054 19.2266 19.6903 17.3269 18.3751L14.4043 16.1832C13.3814 15.1603 12.943 14.7219 12.943 14.7219C12.5047 14.2835 12.3585 13.5529 12.5047 12.8222C12.6508 12.8222 13.3814 12.8222 13.8198 12.9684C14.2582 13.1145 14.4043 13.4068 14.8427 13.4068C14.9888 13.5529 15.2811 13.5529 15.5734 13.5529C16.0117 13.699 16.4501 13.8451 17.0346 14.2835L22.2953 17.9367C23.7566 18.6674 26.8253 19.9825 25.9485 21.1516H26.533H26.8253C27.1175 21.1516 27.2636 21.2977 27.2636 21.59C27.2636 21.7361 27.1175 22.1745 26.9714 23.1974C26.8253 24.5125 26.533 24.8048 24.1949 25.5354C20.5417 26.7045 16.8885 28.458 13.2353 30.7961C10.3127 32.6957 7.24403 33.5725 7.0979 32.4035C7.0979 31.9651 6.95177 31.819 6.65952 31.6728ZM29.6017 30.5038L29.3094 30.7961C29.3094 30.9422 29.3094 30.9422 29.4556 30.9422C29.894 30.9422 30.3323 30.7961 30.7707 30.3577C31.3552 30.0654 31.3552 29.9193 30.9169 29.9193C30.4785 29.9193 30.0401 30.0654 29.6017 30.5038ZM24.6333 32.5496L24.4872 32.8419C24.4872 32.8419 24.4872 32.988 24.6333 32.988C25.364 32.988 26.2407 32.5496 27.2636 31.819L28.5788 31.0883L26.8253 31.5267C25.8024 31.819 25.0717 32.1112 24.6333 32.5496Z" fill="#FCD34D"/>
</svg>
