<svg width="25" height="24" viewBox="0 0 25 24" fill="none" xmlns="http://www.w3.org/2000/svg">
<path d="M16.2678 7.72921C16.7017 7.56994 16.9176 7.51291 17.0361 7.49216C17.0371 7.53167 17.0366 7.56179 17.0346 7.58254C16.8649 9.39296 16.1193 13.8471 15.7359 15.9198C15.6466 16.405 15.5778 16.6361 15.1139 16.3605C14.8095 16.1791 14.5344 15.9509 14.2388 15.7553C13.2693 15.1116 11.882 14.1538 11.9962 14.2116C11.042 13.5745 11.4415 13.1849 11.9742 12.6649C12.0598 12.5812 12.1498 12.4938 12.2376 12.4012C12.2771 12.3597 12.4696 12.179 12.7403 11.9234C13.6096 11.1056 15.2895 9.52407 15.332 9.3411C15.3393 9.31147 15.3451 9.19888 15.28 9.14036C15.2142 9.08109 15.1169 9.1011 15.0473 9.11739C14.9483 9.14011 13.3693 10.1967 10.3103 12.2871C9.86253 12.5982 9.45668 12.7498 9.09279 12.7419L9.09645 12.7442C8.61718 12.573 8.13938 12.4256 7.65939 12.2775C7.34131 12.1808 7.02423 12.0808 6.70818 11.9775L6.48282 11.9049C9.79522 10.4441 12.0013 9.48259 13.1069 9.01665C14.7122 8.34033 15.6649 7.95144 16.2678 7.72921ZM18.0407 6.30102C17.885 6.17612 17.7034 6.0885 17.5095 6.04472C17.3632 6.00916 17.2241 5.99805 17.1195 6.00027C16.7705 6.0062 16.3966 6.1062 15.7688 6.33658C15.1286 6.57214 14.1452 6.97511 12.5449 7.64846C11.4157 8.12403 9.17132 9.10282 5.81185 10.5848C5.51625 10.7041 5.24625 10.8397 5.0326 10.9997C4.83504 11.1486 4.55919 11.4145 4.5087 11.8219C4.47065 12.1301 4.55919 12.4145 4.73919 12.639C4.89577 12.8338 5.09625 12.9523 5.24918 13.0271C5.476 13.1382 5.78185 13.2353 6.05039 13.3205C6.46965 13.4538 6.88745 13.5894 7.30818 13.7197C8.60913 14.1227 9.68034 14.4546 10.8584 15.2413C11.7225 15.8176 12.5705 16.4191 13.4361 16.9939C13.7522 17.2035 14.0471 17.4443 14.3727 17.6384C14.7298 17.8495 15.182 18.0428 15.7337 17.9917C16.5663 17.9139 16.9995 17.1383 17.1751 16.1917C17.5563 14.1249 18.3144 9.60926 18.4922 7.72328C18.5084 7.50444 18.4993 7.28442 18.4651 7.06771C18.4218 6.76794 18.2706 6.49493 18.0407 6.30102Z" fill="#111827"/>
<circle cx="12.5" cy="12" r="10.2" stroke="#111827" stroke-width="1.6"/>
</svg>
